<svg width="241" height="156" viewBox="0 0 241 156" fill="none" xmlns="http://www.w3.org/2000/svg">
<g clip-path="url(#clip0_1372_34154)">
<mask id="path-1-inside-1_1372_34154" fill="white">
<path d="M6.53493 7.60996L41.3047 0L73.0455 23.2229C73.0455 23.2229 72.7822 24.535 73.4408 25.8472C74.0994 27.1594 85.1628 40.4111 85.1628 40.4111L101.757 37.9183L117.958 39.6243L124.806 35.9508L129.152 41.5925L133.103 44.2169L136.659 51.1708L140.742 49.7279L140.347 59.8306L139.688 61.0113L140.083 67.3091L146.801 67.5713L147.591 73.213L149.961 82.2659L149.975 82.787L151.615 83.0204L151.908 84.2452C151.908 84.2452 150.854 85.1202 150.678 85.8196C150.503 86.519 150.562 86.9272 150.562 86.9272C150.562 86.9272 150.678 86.1693 151.791 85.9945C152.903 85.8196 153.898 86.4613 154.893 86.811C155.888 87.1607 157.352 87.3941 157.528 88.3269C157.703 89.2596 157.762 90.3681 158.581 90.251C159.401 90.1347 159.693 89.5516 160.513 89.7264C161.333 89.9013 162.21 90.1933 162.62 89.9013C163.03 89.6093 163.381 89.0262 164.142 88.9685C164.903 88.9099 165.605 89.3182 166.015 88.0357C166.425 86.7533 166.659 86.4027 167.127 86.1116C167.596 85.8196 168.357 85.4699 168.357 84.5957C168.357 83.7215 169.645 83.6044 169.996 83.954C170.347 84.3037 170.113 85.4122 169.937 86.2287C169.762 87.0452 169.059 88.3863 168.825 88.5611C168.591 88.7359 175.147 92.4679 175.147 92.4679L175.674 91.8848L177.02 92.6428C177.02 92.6428 177.898 91.3595 177.313 90.6015L176.728 89.8436L176.435 86.6361L178.484 85.2951C178.484 85.2951 178.659 83.7206 178.718 83.4872C178.777 83.2538 182.64 80.4546 182.64 80.4546L182.405 77.714L186.503 75.4979L187.615 75.6727L187.38 74.0983L190.834 71.1242C190.834 71.1242 195.284 70.1329 196.805 68.325C198.327 66.5172 199.205 65.1761 199.381 64.1262L201.547 63.0763L203.362 64.0676L205.001 60.8016C205.001 60.8016 208.045 59.5183 209.04 58.527L212.319 60.5097L211.207 61.501L206.758 63.6585C206.758 63.6585 206.992 65.9332 206.231 65.9909C205.47 66.0495 204.475 66.3992 204.475 66.3992L201.958 70.1312L198.036 72.8718L198.212 73.9217L200.846 74.1551L202.193 75.671L204.768 74.1551C204.768 74.1551 204.827 73.9217 205.529 74.622C206.231 75.3222 206.817 76.3127 206.817 76.3127L206.758 78.1205L210.856 79.2867L212.612 80.5115L213.138 78.937L214.192 80.1618L214.631 79.2867L215.948 80.2492L215.861 75.4385L217.704 76.6632L218.231 74.3011L217.792 72.6528L218.055 71.5291H219.197L219.373 73.8776L220.163 73.3463L222.007 75.5301L223.5 78.415L226.397 77.0146L226.661 78.0637C226.661 78.0637 227.275 80.4249 227.187 80.688C227.099 80.9503 228.504 80.5132 228.504 80.5132L228.855 79.201L231.402 80.4258L232.193 81.5631L234.827 82.3507L240.184 82.5256C240.184 82.5256 241.589 82.613 240.71 83.4007C239.832 84.1883 236.144 86.4621 236.144 86.4621L235.969 88.4737L234.827 88.124L234.125 89.7859L230.437 87.9492L230.173 88.5611L231.666 90.7475L230.964 92.4094L228.417 90.9223L226.749 91.7974L226.837 92.8473L225.257 94.2469L225.081 95.4717L223.237 95.8214L221.569 97.6581L220.691 95.6465L219.461 96.7839L215.685 95.2094L207.431 97.9212L206.201 97.7464L204.533 95.122L202.338 94.7723L201.724 94.2478L201.987 93.2853C201.987 93.2853 202.602 92.4976 202.866 92.4102C203.13 92.3228 204.007 91.6226 204.007 91.6226L204.886 90.3978C204.886 90.3978 205.5 89.4353 205.852 89.1731C206.203 88.9108 207.345 88.1231 207.345 88.1231C207.345 88.1231 206.554 87.686 206.027 87.5112C205.501 87.3363 205.501 86.7235 205.501 86.7235L205.413 86.199L203.745 83.6621L202.077 82.4373L201.55 82.787L201.375 84.7986C201.375 84.7986 200.408 85.5862 200.145 85.8485C199.882 86.1107 196.809 87.5103 195.755 88.2106C194.701 88.9108 194.174 88.9982 193.911 89.4353C193.648 89.8724 193.209 91.4469 192.155 90.7475C191.101 90.0481 188.555 87.7735 188.555 87.7735L187.326 88.9108L186.887 91.6226L185.482 92.5851L185.745 93.1096C185.745 93.1096 186.36 93.0222 186.624 93.809C186.887 94.5966 187.238 95.6457 187.502 96.1711C187.765 96.6956 187.853 97.3084 187.502 97.3958C187.151 97.4832 186.273 97.221 186.273 97.221L186.887 98.3583L186.799 99.2334C186.799 99.2334 184.868 98.6214 183.814 98.9711C182.76 99.3208 177.229 100.108 177.229 100.108C177.229 100.108 178.37 101.071 178.985 100.896C179.599 100.721 180.568 100.284 180.919 100.284C181.27 100.284 183.028 100.634 183.028 100.634V101.859L181.885 101.771C181.885 101.771 181.621 102.296 181.093 102.033C180.566 101.771 180.566 101.771 180.566 101.771L179.951 102.383L181.268 103.695C181.268 103.695 182.234 104.92 181.882 105.357C181.53 105.794 181.268 105.882 181.004 105.182C180.741 104.483 180.39 103.783 180.39 103.783L179.688 103.608C179.688 103.608 180.217 105.794 180.217 106.057V106.32L179.162 105.883L178.196 106.495L178.371 109.906L177.142 110.868C177.142 110.868 177.142 112.093 175.824 111.918C174.507 111.743 164.949 111.043 164.949 111.043L162.24 112.617V113.405L161.132 114.455V116.905L160.451 117.342V118.566L165.02 120.053L165.285 122.065L167.393 122.853L171.169 122.416C171.169 122.416 172.486 123.728 172.486 124.514C172.486 125.301 172.223 125.914 171.432 125.914L171.52 130.812L173.364 134.311C173.364 134.311 176.086 135.71 175.998 136.935C175.911 138.16 174.681 141.484 174.681 141.484L172.925 141.921C172.925 141.921 171.608 145.945 170.994 146.644C170.379 147.344 168.887 149.269 168.887 149.269L168.623 155.042L168.009 155.479L165.462 154.779L164.496 155.391L163.618 154.692C163.618 154.692 163.354 154.517 162.476 155.129C161.598 155.741 159.929 156.004 159.929 156.004L159.051 154.692L158.7 154.168L158.173 153.73L157.559 153.381L156.768 153.118L155.363 152.594C155.363 152.594 153.871 153.455 152.817 153.542C151.763 153.629 150.182 153.354 150.182 153.354H149.373V152.069L150.173 151.982L148.949 150.408L149.214 145.335L151.148 142.623L150.358 141.398C150.358 141.398 149.305 140.699 148.426 140.523C147.548 140.348 145.968 140.261 145.704 139.998C145.441 139.736 142.543 137.374 142.543 137.374L139.382 136.412C139.382 136.412 137.977 137.199 137.011 137.374C136.045 137.549 134.64 136.849 134.289 136.586C133.938 136.323 132.006 135.012 132.006 135.012L126.473 130.551L120.941 128.101L116.902 123.728L114.092 124.427L107.77 119.616L105.311 116.38L89.5933 104.222L88.3638 97.2235L85.7294 94.9489L84.5877 91.6251L83.5338 88.214C83.5338 88.214 82.9195 86.115 82.8317 85.8519C82.7439 85.5888 82.715 84.7145 81.5435 83.6655C80.3728 82.6156 79.7287 82.1496 79.7287 82.1496C79.7287 82.1496 79.2021 81.6251 79.0266 81.5665C78.8511 81.5079 76.2167 80.1669 75.8657 80.4589C75.5146 80.7508 75.2215 81.3339 75.1048 81.5088C74.9881 81.6836 73.5831 83.0832 73.5831 83.0832L71.2997 81.7422L62.1679 81.5673L56.6656 78.0102L56.8999 75.8527L58.3636 73.9285L57.3685 71.8295L58.0705 70.7219L60.1776 71.1887L58.2461 68.5058C58.2461 68.5058 56.5489 67.9813 56.0215 67.6307C55.4941 67.2802 55.7872 66.6394 56.4901 66.6394L56.5489 64.4818L57.3097 63.6068L54.8508 60.9824L46.5386 59.8748L46.6553 58.4166L45.3091 56.3754L42.6168 56.4339L38.1096 51.2438L37.1145 53.5761L33.6025 52.4685L31.4955 53.9844L33.7788 55.3254L36.179 60.1659L34.423 60.2822C34.423 60.2822 33.9544 58.358 33.2523 57.8327C32.5502 57.3081 30.5591 56.1419 30.5591 56.1419L28.3933 56.8999C28.3933 56.8999 29.1541 57.775 28.2766 59.1746C27.3981 60.5742 27.1059 60.5742 27.1059 60.5742L27.2814 61.6241C27.2814 61.6241 24.8225 62.2657 23.3596 62.382C21.8958 62.4983 17.9152 64.015 16.3936 64.8315C14.8719 65.648 14.5788 66.2311 14.5788 66.2311C14.5788 66.2311 13.9346 69.9054 14.7543 72.8794C15.5739 75.8535 16.6858 75.8535 16.6858 75.8535L14.2269 78.0696L0 75.5539L6.53493 7.60996Z"/>
</mask>
<path d="M6.53493 7.60996L41.3047 0L73.0455 23.2229C73.0455 23.2229 72.7822 24.535 73.4408 25.8472C74.0994 27.1594 85.1628 40.4111 85.1628 40.4111L101.757 37.9183L117.958 39.6243L124.806 35.9508L129.152 41.5925L133.103 44.2169L136.659 51.1708L140.742 49.7279L140.347 59.8306L139.688 61.0113L140.083 67.3091L146.801 67.5713L147.591 73.213L149.961 82.2659L149.975 82.787L151.615 83.0204L151.908 84.2452C151.908 84.2452 150.854 85.1202 150.678 85.8196C150.503 86.519 150.562 86.9272 150.562 86.9272C150.562 86.9272 150.678 86.1693 151.791 85.9945C152.903 85.8196 153.898 86.4613 154.893 86.811C155.888 87.1607 157.352 87.3941 157.528 88.3269C157.703 89.2596 157.762 90.3681 158.581 90.251C159.401 90.1347 159.693 89.5516 160.513 89.7264C161.333 89.9013 162.21 90.1933 162.62 89.9013C163.03 89.6093 163.381 89.0262 164.142 88.9685C164.903 88.9099 165.605 89.3182 166.015 88.0357C166.425 86.7533 166.659 86.4027 167.127 86.1116C167.596 85.8196 168.357 85.4699 168.357 84.5957C168.357 83.7215 169.645 83.6044 169.996 83.954C170.347 84.3037 170.113 85.4122 169.937 86.2287C169.762 87.0452 169.059 88.3863 168.825 88.5611C168.591 88.7359 175.147 92.4679 175.147 92.4679L175.674 91.8848L177.02 92.6428C177.02 92.6428 177.898 91.3595 177.313 90.6015L176.728 89.8436L176.435 86.6361L178.484 85.2951C178.484 85.2951 178.659 83.7206 178.718 83.4872C178.777 83.2538 182.64 80.4546 182.64 80.4546L182.405 77.714L186.503 75.4979L187.615 75.6727L187.38 74.0983L190.834 71.1242C190.834 71.1242 195.284 70.1329 196.805 68.325C198.327 66.5172 199.205 65.1761 199.381 64.1262L201.547 63.0763L203.362 64.0676L205.001 60.8016C205.001 60.8016 208.045 59.5183 209.04 58.527L212.319 60.5097L211.207 61.501L206.758 63.6585C206.758 63.6585 206.992 65.9332 206.231 65.9909C205.47 66.0495 204.475 66.3992 204.475 66.3992L201.958 70.1312L198.036 72.8718L198.212 73.9217L200.846 74.1551L202.193 75.671L204.768 74.1551C204.768 74.1551 204.827 73.9217 205.529 74.622C206.231 75.3222 206.817 76.3127 206.817 76.3127L206.758 78.1205L210.856 79.2867L212.612 80.5115L213.138 78.937L214.192 80.1618L214.631 79.2867L215.948 80.2492L215.861 75.4385L217.704 76.6632L218.231 74.3011L217.792 72.6528L218.055 71.5291H219.197L219.373 73.8776L220.163 73.3463L222.007 75.5301L223.5 78.415L226.397 77.0146L226.661 78.0637C226.661 78.0637 227.275 80.4249 227.187 80.688C227.099 80.9503 228.504 80.5132 228.504 80.5132L228.855 79.201L231.402 80.4258L232.193 81.5631L234.827 82.3507L240.184 82.5256C240.184 82.5256 241.589 82.613 240.71 83.4007C239.832 84.1883 236.144 86.4621 236.144 86.4621L235.969 88.4737L234.827 88.124L234.125 89.7859L230.437 87.9492L230.173 88.5611L231.666 90.7475L230.964 92.4094L228.417 90.9223L226.749 91.7974L226.837 92.8473L225.257 94.2469L225.081 95.4717L223.237 95.8214L221.569 97.6581L220.691 95.6465L219.461 96.7839L215.685 95.2094L207.431 97.9212L206.201 97.7464L204.533 95.122L202.338 94.7723L201.724 94.2478L201.987 93.2853C201.987 93.2853 202.602 92.4976 202.866 92.4102C203.13 92.3228 204.007 91.6226 204.007 91.6226L204.886 90.3978C204.886 90.3978 205.5 89.4353 205.852 89.1731C206.203 88.9108 207.345 88.1231 207.345 88.1231C207.345 88.1231 206.554 87.686 206.027 87.5112C205.501 87.3363 205.501 86.7235 205.501 86.7235L205.413 86.199L203.745 83.6621L202.077 82.4373L201.55 82.787L201.375 84.7986C201.375 84.7986 200.408 85.5862 200.145 85.8485C199.882 86.1107 196.809 87.5103 195.755 88.2106C194.701 88.9108 194.174 88.9982 193.911 89.4353C193.648 89.8724 193.209 91.4469 192.155 90.7475C191.101 90.0481 188.555 87.7735 188.555 87.7735L187.326 88.9108L186.887 91.6226L185.482 92.5851L185.745 93.1096C185.745 93.1096 186.36 93.0222 186.624 93.809C186.887 94.5966 187.238 95.6457 187.502 96.1711C187.765 96.6956 187.853 97.3084 187.502 97.3958C187.151 97.4832 186.273 97.221 186.273 97.221L186.887 98.3583L186.799 99.2334C186.799 99.2334 184.868 98.6214 183.814 98.9711C182.76 99.3208 177.229 100.108 177.229 100.108C177.229 100.108 178.37 101.071 178.985 100.896C179.599 100.721 180.568 100.284 180.919 100.284C181.27 100.284 183.028 100.634 183.028 100.634V101.859L181.885 101.771C181.885 101.771 181.621 102.296 181.093 102.033C180.566 101.771 180.566 101.771 180.566 101.771L179.951 102.383L181.268 103.695C181.268 103.695 182.234 104.92 181.882 105.357C181.53 105.794 181.268 105.882 181.004 105.182C180.741 104.483 180.39 103.783 180.39 103.783L179.688 103.608C179.688 103.608 180.217 105.794 180.217 106.057V106.32L179.162 105.883L178.196 106.495L178.371 109.906L177.142 110.868C177.142 110.868 177.142 112.093 175.824 111.918C174.507 111.743 164.949 111.043 164.949 111.043L162.24 112.617V113.405L161.132 114.455V116.905L160.451 117.342V118.566L165.02 120.053L165.285 122.065L167.393 122.853L171.169 122.416C171.169 122.416 172.486 123.728 172.486 124.514C172.486 125.301 172.223 125.914 171.432 125.914L171.52 130.812L173.364 134.311C173.364 134.311 176.086 135.71 175.998 136.935C175.911 138.16 174.681 141.484 174.681 141.484L172.925 141.921C172.925 141.921 171.608 145.945 170.994 146.644C170.379 147.344 168.887 149.269 168.887 149.269L168.623 155.042L168.009 155.479L165.462 154.779L164.496 155.391L163.618 154.692C163.618 154.692 163.354 154.517 162.476 155.129C161.598 155.741 159.929 156.004 159.929 156.004L159.051 154.692L158.7 154.168L158.173 153.73L157.559 153.381L156.768 153.118L155.363 152.594C155.363 152.594 153.871 153.455 152.817 153.542C151.763 153.629 150.182 153.354 150.182 153.354H149.373V152.069L150.173 151.982L148.949 150.408L149.214 145.335L151.148 142.623L150.358 141.398C150.358 141.398 149.305 140.699 148.426 140.523C147.548 140.348 145.968 140.261 145.704 139.998C145.441 139.736 142.543 137.374 142.543 137.374L139.382 136.412C139.382 136.412 137.977 137.199 137.011 137.374C136.045 137.549 134.64 136.849 134.289 136.586C133.938 136.323 132.006 135.012 132.006 135.012L126.473 130.551L120.941 128.101L116.902 123.728L114.092 124.427L107.77 119.616L105.311 116.38L89.5933 104.222L88.3638 97.2235L85.7294 94.9489L84.5877 91.6251L83.5338 88.214C83.5338 88.214 82.9195 86.115 82.8317 85.8519C82.7439 85.5888 82.715 84.7145 81.5435 83.6655C80.3728 82.6156 79.7287 82.1496 79.7287 82.1496C79.7287 82.1496 79.2021 81.6251 79.0266 81.5665C78.8511 81.5079 76.2167 80.1669 75.8657 80.4589C75.5146 80.7508 75.2215 81.3339 75.1048 81.5088C74.9881 81.6836 73.5831 83.0832 73.5831 83.0832L71.2997 81.7422L62.1679 81.5673L56.6656 78.0102L56.8999 75.8527L58.3636 73.9285L57.3685 71.8295L58.0705 70.7219L60.1776 71.1887L58.2461 68.5058C58.2461 68.5058 56.5489 67.9813 56.0215 67.6307C55.4941 67.2802 55.7872 66.6394 56.4901 66.6394L56.5489 64.4818L57.3097 63.6068L54.8508 60.9824L46.5386 59.8748L46.6553 58.4166L45.3091 56.3754L42.6168 56.4339L38.1096 51.2438L37.1145 53.5761L33.6025 52.4685L31.4955 53.9844L33.7788 55.3254L36.179 60.1659L34.423 60.2822C34.423 60.2822 33.9544 58.358 33.2523 57.8327C32.5502 57.3081 30.5591 56.1419 30.5591 56.1419L28.3933 56.8999C28.3933 56.8999 29.1541 57.775 28.2766 59.1746C27.3981 60.5742 27.1059 60.5742 27.1059 60.5742L27.2814 61.6241C27.2814 61.6241 24.8225 62.2657 23.3596 62.382C21.8958 62.4983 17.9152 64.015 16.3936 64.8315C14.8719 65.648 14.5788 66.2311 14.5788 66.2311C14.5788 66.2311 13.9346 69.9054 14.7543 72.8794C15.5739 75.8535 16.6858 75.8535 16.6858 75.8535L14.2269 78.0696L0 75.5539L6.53493 7.60996Z" fill="white" fill-opacity="0.1" stroke="white" stroke-width="4" mask="url(#path-1-inside-1_1372_34154)"/>
<path d="M205.12 103.895C205.12 103.895 205.881 106.111 206.291 105.994C206.7 105.877 207.286 105.177 207.461 104.944C207.637 104.71 208.163 103.836 207.403 103.778C206.642 103.719 205.119 103.894 205.119 103.894L205.12 103.895Z" fill="white" fill-opacity="0.5"/>
<path d="M211.56 101.271C211.384 101.213 211.443 101.038 211.56 100.63C211.676 100.221 211.735 100.28 211.443 99.9303C211.15 99.5806 211.677 98.1224 211.677 98.1224L213.551 99.3472C213.551 99.3472 215.424 99.1138 215.307 99.7555C215.19 100.397 214.721 101.155 214.721 101.155C214.721 101.155 215.248 102.263 215.015 102.613C214.78 102.963 214.37 103.196 213.726 103.196C213.082 103.196 212.438 102.963 212.497 102.438C212.556 101.914 213.141 101.506 212.672 101.447C212.204 101.388 211.561 101.272 211.561 101.272L211.56 101.271Z" fill="white" fill-opacity="0.5"/>
<path d="M221.628 101.562C221.628 101.562 222.682 100.338 223.033 100.396C223.384 100.455 223.443 101.154 223.092 101.504C222.741 101.854 221.628 101.562 221.628 101.562Z" fill="white" fill-opacity="0.5"/>
<path d="M84.6763 39.2236C84.6763 39.2236 85.467 41.6731 86.7834 42.9853C88.1006 44.2975 88.3639 45.3474 89.5933 45.3474C90.8228 45.3474 91.8767 45.5223 91.8767 45.5223L92.6674 46.8344C92.6674 46.8344 88.8912 49.1965 87.7504 51.3829C86.6087 53.5702 84.9405 55.6692 83.7988 56.8065C82.6571 57.9438 82.0428 58.9929 82.306 60.8305C82.5693 62.6672 83.7988 67.6536 83.7988 67.6536L80.4623 69.9283C80.4623 69.9283 79.9358 72.203 81.5162 73.5143C83.0967 74.8265 84.3262 77.7131 85.9067 79.8121C87.4871 81.9111 88.9799 85.1482 88.9799 85.1482L84.765 87.0724L83.711 83.9235L80.3745 79.9869L75.8964 78.937L74.0526 80.9486L73.1742 79.7238C72.7354 79.1119 72.6476 78.7613 72.1202 78.8487C71.5937 78.9362 70.3643 77.0994 69.5736 76.8372C68.7829 76.5749 66.1494 73.7757 64.5689 72.0264C62.9884 70.2771 62.7251 69.7518 62.6374 69.2272C62.5496 68.7027 62.5496 67.8276 62.5496 67.8276C62.5496 67.8276 61.2324 67.2157 60.6181 66.6903C60.0038 66.1649 60.0916 66.0783 60.0038 65.2907C59.916 64.503 59.3017 63.3665 57.7204 62.4041C56.1399 61.4416 55.2615 60.7422 53.5933 61.4416" stroke="white" stroke-width="3.09" stroke-miterlimit="10"/>
<path d="M117.055 124.422C117.055 124.422 118.12 121.448 119.349 121.448C120.578 121.448 122.955 121.36 123.218 120.485C123.481 119.61 122.869 118.561 124.011 117.861C125.153 117.162 127.613 116.112 128.316 114.887L125.594 113.75C125.594 113.75 126.648 112.175 126.473 111.738C126.297 111.301 126.034 111.039 124.366 111.214C122.697 111.388 120.941 110.251 120.941 110.251L121.292 108.764L120.063 107.102L120.326 105.528C120.326 105.528 123.312 104.828 123.399 103.341C123.487 101.854 123.007 101.505 123.27 101.154C123.533 100.804 124.194 100.017 124.194 100.017V97.7421L126.629 98.7046C126.629 98.7046 128.658 97.305 128.921 97.0427C129.185 96.7804 129.277 95.9054 129.892 95.7305C130.506 95.5557 131.299 94.9429 131.563 94.4183C131.826 93.8938 131.74 93.4558 131.476 93.1936C131.212 92.9313 129.105 92.0562 128.667 92.2311C128.228 92.4059 126.998 94.3301 125.506 93.8055C124.013 93.281 121.554 90.9189 121.466 88.9948C121.378 87.0706 121.993 86.283 121.291 85.671C120.589 85.0591 119.886 85.4088 119.798 86.0207C119.71 86.6327 119.535 87.5077 119.535 87.5077L115.846 87.4203L115.671 90.9189L110.666 90.8315C110.666 90.8315 110.403 90.3944 111.017 89.6942C111.631 88.9948 111.896 88.9065 111.631 88.2945C111.367 87.6826 111.017 87.2446 110.402 87.6826C109.787 88.1205 106.978 90.0447 107.504 91.2686C108.031 92.4925 108.734 93.893 107.68 93.893C106.626 93.893 105.309 93.7181 105.221 92.6682C105.133 91.6183 105.221 90.7441 105.221 90.7441L97.7573 86.283L95.9135 88.1197C95.9135 88.1197 95.2115 87.77 95.2115 87.3321C95.2115 86.8941 94.9482 84.2706 94.9482 84.2706C94.9482 84.2706 92.7534 82.6961 92.6648 81.384C92.5762 80.0718 92.4893 78.4099 92.4893 78.4099L86.2551 80.334" stroke="white" stroke-width="3" stroke-miterlimit="10"/>
<path d="M85.6426 86.5461L88.3648 90.6575L88.1892 93.4567L84.7642 94.7689" stroke="white" stroke-width="3.09" stroke-miterlimit="10"/>
<path d="M150.679 85.8171C150.679 85.8171 150.62 86.8959 151.236 88.2955C151.85 89.6951 152.728 91.2696 152.377 92.1446C152.026 93.0197 151.148 94.331 151.851 95.2061C152.553 96.0812 154.134 96.3434 153.519 97.4808C152.905 98.6181 151.851 99.8429 152.992 100.542C154.134 101.242 155.364 100.455 155.539 101.242C155.715 102.028 155.013 103.078 156.153 103.341C157.295 103.603 157.734 103.603 157.471 104.216C157.207 104.828 156.769 105.44 157.997 106.402C159.227 107.365 159.139 106.927 160.281 106.664C161.422 106.402 163.091 105.877 163.354 107.101C163.617 108.326 163.091 108.676 162.388 108.851C161.685 109.026 161.246 109.55 161.773 110.425C162.301 111.3 163.266 114.362 163.266 114.362" stroke="white" stroke-width="3.09" stroke-miterlimit="10"/>
<path d="M160.982 117.862L160.455 116.725L157.382 115.5C157.382 115.5 156.768 115.762 156.416 116.287C156.065 116.812 155.537 117.862 155.537 117.862C155.537 117.862 152.991 115.325 152.64 115.15C152.289 114.975 150.269 114.626 149.83 115.15C149.391 115.675 148.776 117.074 148.162 117.425C147.547 117.775 147.283 117.512 146.669 116.9C146.055 116.288 145.088 115.85 144.913 116.638C144.737 117.426 144.562 117.95 144.034 118.038C143.507 118.125 143.596 117.25 143.859 116.551C144.122 115.851 143.42 115.588 142.278 116.463C141.137 117.338 139.644 118.65 138.942 116.813C138.24 114.976 137.537 114.101 137.537 114.101L134.639 115.151L128.316 114.889C128.316 114.889 129.81 111.565 129.107 110.602C128.404 109.64 125.771 108.853 127 108.416C128.23 107.979 129.371 108.329 129.371 108.329L129.635 106.929C129.635 106.929 131.829 108.591 132.093 107.279C132.358 105.967 132.62 102.818 132.62 102.818L136.044 105.18L136.22 103.78C136.22 103.78 137.625 104.48 138.503 104.568C139.382 104.655 140.61 104.568 140.61 104.568C140.61 104.568 140.435 101.681 140.961 100.631C141.488 99.5814 142.015 98.9694 141.927 97.3075C141.84 95.6457 142.542 94.5083 143.332 94.1586C144.123 93.809 144.034 95.6457 144.65 95.7331C145.265 95.8205 146.142 95.1211 146.493 94.5958C146.844 94.0712 147.459 94.1586 147.811 95.1203C148.162 96.0828 148.864 96.5199 149.303 94.858C149.742 93.1962 150.269 92.2337 152.113 92.759" stroke="white" stroke-width="3.09" stroke-miterlimit="10"/>
<path d="M148.864 141.567C148.864 141.567 150.357 138.943 151.148 139.117C151.938 139.292 154.572 139.467 154.924 138.418C155.276 137.369 154.924 135.357 155.45 134.92C155.977 134.482 157.294 135.182 157.734 134.482C158.172 133.783 158.524 131.858 158.524 131.858C158.524 131.858 157.734 129.759 158.524 129.671C159.315 129.583 161.51 129.234 161.51 129.234L161.949 125.997L163.09 125.473C163.09 125.473 164.495 126.785 165.022 125.997C165.548 125.21 165.373 124.335 165.022 124.073C164.671 123.811 163.968 123.461 163.968 123.461L165.812 121.887" stroke="white" stroke-width="3.09" stroke-miterlimit="10"/>
<path d="M173.919 91.3568C173.919 91.3568 173.099 92.7564 172.163 92.9898C171.226 93.2232 170.641 93.6315 170.582 94.0975C170.523 94.5643 170.699 96.1387 170.348 96.7218C169.997 97.3049 169.294 98.3548 169.762 98.8208C170.231 99.2868 170.874 100.395 172.046 99.9284C173.217 99.4616 174.387 98.6451 174.68 98.4125C174.973 98.1791 175.324 98.0629 176.144 98.9371C176.964 99.8121 177.841 100.22 178.603 100.337" stroke="white" stroke-width="3.09" stroke-miterlimit="10"/>
<path d="M176.963 85.2925C176.963 85.2925 177.489 86.1676 177.958 86.6921C178.427 87.2166 178.778 87.2752 179.363 87.5086C179.948 87.742 179.597 88.6748 180.299 88.8496C181.001 89.0245 181.06 89.3742 181.704 90.1329C182.348 90.8909 183.695 91.3577 183.988 91.766C184.281 92.1742 183.812 92.2328 183.988 92.8736C184.163 93.5144 183.929 94.7977 184.163 95.2645C184.398 95.7314 185.1 95.6728 185.042 95.8476C184.984 96.0225 184.281 96.3722 184.691 96.839C185.1 97.3058 185.451 97.8303 185.745 98.2386C186.038 98.6468 188.028 98.7054 188.028 98.7054" stroke="white" stroke-width="3.09" stroke-miterlimit="10"/>
<path d="M202.369 74.9122C202.369 74.9122 201.959 76.3704 201.959 77.0112C201.959 77.652 202.252 78.5857 202.661 79.1688C203.071 79.7519 203.481 80.3935 203.422 81.3849C203.363 82.3762 203.071 84.1841 203.071 84.1841" stroke="white" stroke-width="3.09" stroke-miterlimit="10"/>
<path d="M206.291 88.1502C206.291 88.1502 207.696 88.2088 209.042 87.6257C210.388 87.0426 211.501 86.8092 212.32 87.2174C213.14 87.6257 213.901 88.1502 214.837 88.2673C215.774 88.3836 216.886 88.3259 217.413 87.2174C217.939 86.1098 219.052 84.7102 219.579 84.2434C220.105 83.7766 220.691 83.4269 221.51 83.3106C222.33 83.1943 223.617 83.4854 224.379 83.4269C225.14 83.3683 226.135 83.252 226.662 82.4355C227.189 81.619 227.364 79.5778 227.364 79.5778" stroke="white" stroke-width="3.09" stroke-miterlimit="10"/>
<path d="M229.179 92.1157C229.179 92.1157 229.53 91.4164 229.53 90.5413C229.53 89.6662 227.95 88.8506 226.896 88.2089C225.842 87.5672 223.501 87.159 222.681 87.0427C221.861 86.9264 217.646 86.7507 217.646 86.7507" stroke="white" stroke-width="3.09" stroke-miterlimit="10"/>
</g>
<defs>
<clipPath id="clip0_1372_34154">
<rect width="241" height="156" fill="white"/>
</clipPath>
</defs>
</svg>
